<svg height="104" viewBox="0 0 548 104" width="548" xmlns="http://www.w3.org/2000/svg" xmlns:xlink="http://www.w3.org/1999/xlink"><linearGradient id="a" x1="0%" x2="100%" y1="50.005592%" y2="50.005592%"><stop offset="0" stop-color="#272962"/><stop offset="1" stop-color="#27326f"/></linearGradient><linearGradient id="b" x1="-.209006%" x2="100%" y1="50%" y2="50%"><stop offset="0" stop-color="#29326f"/><stop offset=".66" stop-color="#293578"/><stop offset="1" stop-color="#27397e"/></linearGradient><linearGradient id="c" x1="0%" x2="100%" y1="50.005711%" y2="50.005711%"><stop offset="0" stop-color="#273a84"/><stop offset="1" stop-color="#283c8e"/></linearGradient><linearGradient id="d" x1=".035145%" x2="100%" y1="50.005318%" y2="50.005318%"><stop offset="0" stop-color="#293579"/><stop offset=".18" stop-color="#28387c"/><stop offset="1" stop-color="#27397e"/></linearGradient><g fill="none" fill-rule="evenodd" transform="translate(0 -1)"><g transform="translate(0 3)"><path d="m17.01 1.81h-16.12v2.82c12.59.39 16.34 6.31 17.72 13.13l7.44 73.46h24.39l52.12-89.41h-24.4l-31.32 53.81-5.3-53.81z" fill="url(#a)"/><path d="m115.54 1.78h23.7l-29.05 89.44h-23.58z" fill="url(#b)"/><path d="m245.97 3.67-45.75 87.55h25.69l6.68-13.38h29.8l1 13.38h23.71l-6.7-87.55zm12.45 22.54 2.82 37.1h-21.3z" fill="url(#c)"/><path d="m145.04 24.54c3.55-14.09 15.21-23.89 35.07-23.89 11.767117.35844905 23.114784 4.45271513 32.4 11.69l-14.09 14.76s-10.39-8.14-16.54-8.14c-8.08 0-11.74 3-12.5 7.83-1.5 9.69 33 15.61 31.94 38.2-.73 15.07-16.34 29.69-34.17 29.69-26.76 0-40-10.71-40-10.71l12.06-17.21s12.16 9.69 23.43 9.16c7.69-.34 13.58-3.3 13.19-8.45-.91-11.78-37.24-17.19-30.82-42.91z" fill="url(#d)" fill-rule="nonzero"/></g><g fill-rule="nonzero"><path d="m443.88 52.96c.001904-15.8858244 7.311122-30.8877897 19.82-40.68-21.249307-16.81839337-51.863212-14.44876991-70.271315 5.4392457-18.408102 19.8880157-18.408102 50.5934929 0 70.4815086 18.408103 19.8880157 49.022008 22.2576387 70.271315 5.4392457-12.508878-9.7922103-19.818096-24.7941756-19.82-40.68z" fill="#ec2528"/><path d="m463.7 12.2c9.82-4.73 19.87 18.2 19.87 40.68s-10.33 46.28-19.87 40.66c-8.5-5.08-20.1-18.23-19.86-40.68s13.39-37.56 19.86-40.66z" fill="#f36b24"/><path d="m495.88 1c-11.685279-.01734234-23.030572 3.93129925-32.18 11.2 10.78063 8.4482425 17.762609 20.8339351 19.409274 34.4311142 1.646665 13.597179-2.176938 27.2914649-10.629274 38.0688858l-.23.32c-2.503887 3.1673701-5.373848 6.0272618-8.55 8.52 17.835332 14.116273 42.785895 14.968736 61.543108 2.1026865 18.757212-12.8660498 26.946316-36.449855 20.19926-58.1718596-6.747056-21.7220047-26.856652-36.51597134-49.602368-36.4908269z" fill="#f9a020"/></g></g></svg>