<svg viewBox="0 0 62.68 40.13" xmlns="http://www.w3.org/2000/svg"><g transform="translate(-58.85 -.94)"><path d="m115.92.94h-52.64a7.83 7.83 0 0 0 -1.18.1 4.09 4.09 0 0 0 -1.1.38 3.79 3.79 0 0 0 -.95.69 3.7 3.7 0 0 0 -.7 1 3.88 3.88 0 0 0 -.35 1.08 7.72 7.72 0 0 0 -.1 1.18v.54 30.18.55a7.7 7.7 0 0 0 .1 1.17 3.88 3.88 0 0 0 .37 1.12 3.7 3.7 0 0 0 .7 1 3.79 3.79 0 0 0 .95.69 4.09 4.09 0 0 0 1.08.38 7.83 7.83 0 0 0 1.18.1h53.82a7.72 7.72 0 0 0 1.18-.1 4 4 0 0 0 1.12-.37 3.84 3.84 0 0 0 1-.69 3.67 3.67 0 0 0 .69-1 3.88 3.88 0 0 0 .37-1.12 7.7 7.7 0 0 0 .1-1.17c0-.19 0-.37 0-.55v-30.19c0-.18 0-.36 0-.54a7.72 7.72 0 0 0 -.1-1.18 3.88 3.88 0 0 0 -.37-1.12 3.67 3.67 0 0 0 -.69-1 3.84 3.84 0 0 0 -1-.69 4 4 0 0 0 -1.12-.37 7.72 7.72 0 0 0 -1.18-.01h-1.18z" fill="#606469"/><path d="m115.92 2.27h1.15a6.61 6.61 0 0 1 1 .09 2.51 2.51 0 0 1 .76.24 2.54 2.54 0 0 1 1.06 1.06 2.87 2.87 0 0 1 .24.75 5.63 5.63 0 0 1 .08 1v.52 30.16.51a5.63 5.63 0 0 1 -.08 1 2.87 2.87 0 0 1 -.24.75 2.67 2.67 0 0 1 -.45.61 2.52 2.52 0 0 1 -.62.45 2.38 2.38 0 0 1 -.74.24 7.28 7.28 0 0 1 -1 .09h-53.76a7 7 0 0 1 -1-.09 2.45 2.45 0 0 1 -.75-.24 2.52 2.52 0 0 1 -.62-.45 2.47 2.47 0 0 1 -.45-.61 2.87 2.87 0 0 1 -.24-.75 5.63 5.63 0 0 1 -.08-1c0-.17 0-.34 0-.51v-30.17c0-.18 0-.35 0-.52a5.63 5.63 0 0 1 .08-1 2.55 2.55 0 0 1 .25-.75 2.37 2.37 0 0 1 .49-.59 2.52 2.52 0 0 1 .62-.45 2.36 2.36 0 0 1 .75-.24 6.74 6.74 0 0 1 1-.09h52.6" fill="#fff"/><path d="m88.72 13.86v5.46h3.36a2.77 2.77 0 0 0 2.8-2.73 2.8 2.8 0 0 0 -2.8-2.73zm0 7.38v6.33h-2v-15.63h5.28a4.77 4.77 0 0 1 3.45 1.36 4.49 4.49 0 0 1 0 6.61 4.79 4.79 0 0 1 -3.45 1.33z" fill="#606469"/><path d="m99 24.3a1.62 1.62 0 0 0 .66 1.31 2.47 2.47 0 0 0 1.57.52 3.19 3.19 0 0 0 2.26-.94 2.93 2.93 0 0 0 1-2.2 4.09 4.09 0 0 0 -2.62-.74 3.33 3.33 0 0 0 -2 .59 1.74 1.74 0 0 0 -.87 1.46m2.6-7.77a5 5 0 0 1 3.52 1.19 4.21 4.21 0 0 1 1.26 3.28v6.59h-1.93v-1.5h-.08a3.84 3.84 0 0 1 -3.32 1.83 4.39 4.39 0 0 1 -3-1 3.38 3.38 0 0 1 -1.19-2.63 3.19 3.19 0 0 1 1.26-2.64 5.32 5.32 0 0 1 3.35-1 5.88 5.88 0 0 1 3 .66v-.46a2.27 2.27 0 0 0 -.83-1.78 2.82 2.82 0 0 0 -1.94-.73 3.09 3.09 0 0 0 -2.7 1.4l-1.77-1.12a4.93 4.93 0 0 1 4.33-2.09" fill="#606469"/></g><path d="m58.56 15.94-6.71 15.41h-2.07l2.49-5.39-4.42-10.02h2.19l3.19 7.68h.04l3.11-7.68z" fill="#606469"/><path d="m80.59 19.88a10.85 10.85 0 0 0 -.15-1.83h-8.44v3.46h4.86a4.15 4.15 0 0 1 -1.86 2.73v2.25h2.9a8.79 8.79 0 0 0 2.67-6.61" fill="#557ebf" transform="translate(-58.85 -.94)"/><path d="m72 28.66a8.62 8.62 0 0 0 6-2.17l-3-2.25a5.46 5.46 0 0 1 -3 .86 5.37 5.37 0 0 1 -5-3.71h-3v2.32a9 9 0 0 0 8 4.95" fill="#36a852" transform="translate(-58.85 -.94)"/><path d="m66.91 21.39a5.44 5.44 0 0 1 -.28-1.72 5.53 5.53 0 0 1 .28-1.67v-2.36h-3a9 9 0 0 0 0 8.07z" fill="#f8bb16" transform="translate(-58.85 -.94)"/><path d="m72 14.25a4.9 4.9 0 0 1 3.45 1.34l2.55-2.59a8.67 8.67 0 0 0 -6-2.34 9 9 0 0 0 -8 5l3 2.31a5.36 5.36 0 0 1 5-3.7" fill="#e94335" transform="translate(-58.85 -.94)"/></svg>